<mxfile host="app.diagrams.net" agent="Mozilla/5.0 (Macintosh; Intel Mac OS X 10.15; rv:131.0) Gecko/20100101 Firefox/131.0" version="24.7.17">
  <diagram name="Page-1" id="yUWiJsb1odWKn49dKLG9">
    <mxGraphModel grid="1" page="1" gridSize="10" guides="1" tooltips="1" connect="1" arrows="1" fold="1" pageScale="1" pageWidth="1100" pageHeight="850" math="0" shadow="0">
      <root>
        <mxCell id="0" />
        <mxCell id="1" parent="0" />
        <mxCell id="c58yYooRlup-3saje_W5-4" value="" style="group" vertex="1" connectable="0" parent="1">
          <mxGeometry x="460" y="240" width="130" height="130" as="geometry" />
        </mxCell>
        <mxCell id="c58yYooRlup-3saje_W5-1" value="&lt;br&gt;&lt;br&gt;&lt;br&gt;&lt;br&gt;&lt;br&gt;&lt;br&gt;&lt;br&gt;&lt;br&gt;&lt;br&gt;&lt;br&gt;&lt;br&gt;&lt;br&gt;&lt;br&gt;&lt;br&gt;&lt;br&gt;&lt;br&gt;&lt;br&gt;&lt;br&gt;&lt;p style=&quot;text-align:center&quot; align=&quot;center&quot; class=&quot;MsoNormal&quot;&gt;&lt;span style=&quot;mso-bidi-font-weight:&lt;br/&gt;normal&quot;&gt;&lt;font size=&quot;1&quot;&gt;&lt;span style=&quot;line-height: 115%; font-size: 12px;&quot; lang=&quot;EN&quot;&gt;&lt;br&gt;&lt;/span&gt;&lt;/font&gt;&lt;/span&gt;&lt;/p&gt;&lt;br&gt;&lt;br&gt;&lt;br&gt;&lt;br&gt;&lt;div&gt;&lt;br/&gt;&lt;/div&gt;" style="ellipse;whiteSpace=wrap;html=1;aspect=fixed;" vertex="1" parent="c58yYooRlup-3saje_W5-4">
          <mxGeometry width="130" height="130" as="geometry" />
        </mxCell>
        <mxCell id="c58yYooRlup-3saje_W5-2" value="&lt;span style=&quot;mso-bidi-font-weight:&lt;br/&gt;normal&quot;&gt;&lt;font size=&quot;1&quot;&gt;&lt;span style=&quot;line-height: 115%; font-size: 12px;&quot; lang=&quot;EN&quot;&gt;Virtual Event&lt;br&gt;Management System&lt;/span&gt;&lt;/font&gt;&lt;/span&gt;" style="text;html=1;align=center;verticalAlign=middle;whiteSpace=wrap;rounded=0;" vertex="1" parent="c58yYooRlup-3saje_W5-4">
          <mxGeometry x="35" y="50" width="60" height="30" as="geometry" />
        </mxCell>
        <mxCell id="c58yYooRlup-3saje_W5-8" value="" style="group" vertex="1" connectable="0" parent="1">
          <mxGeometry x="200" y="310" width="80" height="30" as="geometry" />
        </mxCell>
        <mxCell id="c58yYooRlup-3saje_W5-3" value="" style="rounded=0;whiteSpace=wrap;html=1;" vertex="1" parent="c58yYooRlup-3saje_W5-8">
          <mxGeometry width="80" height="27.5" as="geometry" />
        </mxCell>
        <mxCell id="c58yYooRlup-3saje_W5-7" value="&lt;div&gt;Organizer&lt;/div&gt;" style="text;html=1;align=center;verticalAlign=middle;whiteSpace=wrap;rounded=0;" vertex="1" parent="c58yYooRlup-3saje_W5-8">
          <mxGeometry x="10" width="60" height="30" as="geometry" />
        </mxCell>
        <mxCell id="c58yYooRlup-3saje_W5-9" value="" style="group" vertex="1" connectable="0" parent="1">
          <mxGeometry x="480" y="140" width="80" height="30" as="geometry" />
        </mxCell>
        <mxCell id="c58yYooRlup-3saje_W5-10" value="" style="rounded=0;whiteSpace=wrap;html=1;" vertex="1" parent="c58yYooRlup-3saje_W5-9">
          <mxGeometry width="80" height="27.5" as="geometry" />
        </mxCell>
        <mxCell id="c58yYooRlup-3saje_W5-11" value="&lt;div&gt;Admin&lt;/div&gt;" style="text;html=1;align=center;verticalAlign=middle;whiteSpace=wrap;rounded=0;" vertex="1" parent="c58yYooRlup-3saje_W5-9">
          <mxGeometry x="10" width="60" height="30" as="geometry" />
        </mxCell>
        <mxCell id="c58yYooRlup-3saje_W5-12" value="" style="group" vertex="1" connectable="0" parent="1">
          <mxGeometry x="485" y="500" width="80" height="30" as="geometry" />
        </mxCell>
        <mxCell id="c58yYooRlup-3saje_W5-13" value="" style="rounded=0;whiteSpace=wrap;html=1;" vertex="1" parent="c58yYooRlup-3saje_W5-12">
          <mxGeometry width="80" height="27.5" as="geometry" />
        </mxCell>
        <mxCell id="c58yYooRlup-3saje_W5-14" value="&lt;div&gt;Participant&lt;/div&gt;" style="text;html=1;align=center;verticalAlign=middle;whiteSpace=wrap;rounded=0;" vertex="1" parent="c58yYooRlup-3saje_W5-12">
          <mxGeometry x="10" width="60" height="30" as="geometry" />
        </mxCell>
        <mxCell id="c58yYooRlup-3saje_W5-18" value="&lt;font style=&quot;font-size: 10px;&quot;&gt;Profile created/updated confirmation&lt;/font&gt;" style="text;html=1;align=center;verticalAlign=middle;whiteSpace=wrap;rounded=0;" vertex="1" parent="1">
          <mxGeometry x="530" y="425" width="100" height="30" as="geometry" />
        </mxCell>
        <mxCell id="c58yYooRlup-3saje_W5-19" value="&lt;div&gt;User Details&lt;/div&gt;" style="text;html=1;align=center;verticalAlign=middle;whiteSpace=wrap;rounded=0;" vertex="1" parent="1">
          <mxGeometry x="440" y="425" width="60" height="30" as="geometry" />
        </mxCell>
        <mxCell id="c58yYooRlup-3saje_W5-20" value="" style="endArrow=classic;html=1;rounded=0;exitX=0.5;exitY=0;exitDx=0;exitDy=0;" edge="1" parent="1">
          <mxGeometry width="50" height="50" relative="1" as="geometry">
            <mxPoint x="510" y="500" as="sourcePoint" />
            <mxPoint x="510" y="370" as="targetPoint" />
          </mxGeometry>
        </mxCell>
        <mxCell id="c58yYooRlup-3saje_W5-22" value="" style="endArrow=classic;html=1;rounded=0;" edge="1" parent="1">
          <mxGeometry width="50" height="50" relative="1" as="geometry">
            <mxPoint x="280" y="320" as="sourcePoint" />
            <mxPoint x="460" y="320" as="targetPoint" />
          </mxGeometry>
        </mxCell>
        <mxCell id="c58yYooRlup-3saje_W5-24" value="Event Details" style="text;html=1;align=center;verticalAlign=middle;whiteSpace=wrap;rounded=0;" vertex="1" parent="1">
          <mxGeometry x="330" y="280" width="90" height="30" as="geometry" />
        </mxCell>
        <mxCell id="c58yYooRlup-3saje_W5-25" value="" style="endArrow=classic;html=1;rounded=0;exitX=0.044;exitY=0.705;exitDx=0;exitDy=0;exitPerimeter=0;" edge="1" parent="1" source="c58yYooRlup-3saje_W5-1">
          <mxGeometry width="50" height="50" relative="1" as="geometry">
            <mxPoint x="450" y="330" as="sourcePoint" />
            <mxPoint x="280" y="330" as="targetPoint" />
          </mxGeometry>
        </mxCell>
        <mxCell id="c58yYooRlup-3saje_W5-26" value="Event Confirmation" style="text;html=1;align=center;verticalAlign=middle;whiteSpace=wrap;rounded=0;" vertex="1" parent="1">
          <mxGeometry x="330" y="340" width="90" height="30" as="geometry" />
        </mxCell>
        <mxCell id="c58yYooRlup-3saje_W5-27" value="" style="endArrow=classic;html=1;rounded=0;exitX=0.5;exitY=1;exitDx=0;exitDy=0;entryX=0.5;entryY=0;entryDx=0;entryDy=0;" edge="1" parent="1" source="c58yYooRlup-3saje_W5-1" target="c58yYooRlup-3saje_W5-14">
          <mxGeometry width="50" height="50" relative="1" as="geometry">
            <mxPoint x="530" y="440" as="sourcePoint" />
            <mxPoint x="580" y="390" as="targetPoint" />
          </mxGeometry>
        </mxCell>
        <mxCell id="c58yYooRlup-3saje_W5-32" value="" style="endArrow=none;html=1;rounded=0;" edge="1" parent="1">
          <mxGeometry width="50" height="50" relative="1" as="geometry">
            <mxPoint x="565" y="510" as="sourcePoint" />
            <mxPoint x="710" y="510" as="targetPoint" />
          </mxGeometry>
        </mxCell>
        <mxCell id="c58yYooRlup-3saje_W5-33" value="" style="endArrow=none;html=1;rounded=0;" edge="1" parent="1">
          <mxGeometry width="50" height="50" relative="1" as="geometry">
            <mxPoint x="710" y="510" as="sourcePoint" />
            <mxPoint x="710" y="340" as="targetPoint" />
          </mxGeometry>
        </mxCell>
        <mxCell id="c58yYooRlup-3saje_W5-34" value="" style="endArrow=classic;html=1;rounded=0;entryX=0.926;entryY=0.767;entryDx=0;entryDy=0;entryPerimeter=0;" edge="1" parent="1" target="c58yYooRlup-3saje_W5-1">
          <mxGeometry width="50" height="50" relative="1" as="geometry">
            <mxPoint x="710" y="340" as="sourcePoint" />
            <mxPoint x="760" y="290" as="targetPoint" />
          </mxGeometry>
        </mxCell>
        <mxCell id="c58yYooRlup-3saje_W5-35" value="Event Registration Details" style="text;html=1;align=center;verticalAlign=middle;whiteSpace=wrap;rounded=0;" vertex="1" parent="1">
          <mxGeometry x="630" y="360" width="60" height="30" as="geometry" />
        </mxCell>
        <mxCell id="c58yYooRlup-3saje_W5-40" value="" style="group" vertex="1" connectable="0" parent="1">
          <mxGeometry x="750" y="320" height="200" as="geometry" />
        </mxCell>
        <mxCell id="c58yYooRlup-3saje_W5-37" value="" style="endArrow=none;html=1;rounded=0;exitX=0.982;exitY=0.62;exitDx=0;exitDy=0;exitPerimeter=0;" edge="1" parent="c58yYooRlup-3saje_W5-40" source="c58yYooRlup-3saje_W5-1">
          <mxGeometry width="50" height="50" relative="1" as="geometry">
            <mxPoint x="-160" as="sourcePoint" />
            <mxPoint as="targetPoint" />
          </mxGeometry>
        </mxCell>
        <mxCell id="c58yYooRlup-3saje_W5-38" value="" style="endArrow=none;html=1;rounded=0;" edge="1" parent="c58yYooRlup-3saje_W5-40">
          <mxGeometry width="50" height="50" relative="1" as="geometry">
            <mxPoint as="sourcePoint" />
            <mxPoint y="200" as="targetPoint" />
          </mxGeometry>
        </mxCell>
        <mxCell id="c58yYooRlup-3saje_W5-39" value="" style="endArrow=classic;html=1;rounded=0;entryX=1;entryY=0.75;entryDx=0;entryDy=0;" edge="1" parent="c58yYooRlup-3saje_W5-40" target="c58yYooRlup-3saje_W5-13">
          <mxGeometry width="50" height="50" relative="1" as="geometry">
            <mxPoint y="200" as="sourcePoint" />
            <mxPoint x="50" y="150" as="targetPoint" />
          </mxGeometry>
        </mxCell>
        <mxCell id="c58yYooRlup-3saje_W5-41" value="&lt;div&gt;Registration Confirmation&lt;/div&gt;&lt;div&gt;&lt;br&gt;&lt;/div&gt;" style="text;html=1;align=center;verticalAlign=middle;whiteSpace=wrap;rounded=0;" vertex="1" parent="1">
          <mxGeometry x="630" y="530" width="60" height="30" as="geometry" />
        </mxCell>
        <mxCell id="c58yYooRlup-3saje_W5-43" value="" style="endArrow=none;html=1;rounded=0;exitX=0.982;exitY=0.62;exitDx=0;exitDy=0;exitPerimeter=0;" edge="1" parent="1">
          <mxGeometry width="50" height="50" relative="1" as="geometry">
            <mxPoint x="590" y="310" as="sourcePoint" />
            <mxPoint x="790" y="309.5" as="targetPoint" />
          </mxGeometry>
        </mxCell>
        <mxCell id="c58yYooRlup-3saje_W5-44" value="" style="endArrow=none;html=1;rounded=0;" edge="1" parent="1">
          <mxGeometry width="50" height="50" relative="1" as="geometry">
            <mxPoint x="790" y="600" as="sourcePoint" />
            <mxPoint x="790" y="310" as="targetPoint" />
          </mxGeometry>
        </mxCell>
        <mxCell id="c58yYooRlup-3saje_W5-45" value="" style="endArrow=none;html=1;rounded=0;" edge="1" parent="1">
          <mxGeometry width="50" height="50" relative="1" as="geometry">
            <mxPoint x="560" y="600" as="sourcePoint" />
            <mxPoint x="790" y="600" as="targetPoint" />
          </mxGeometry>
        </mxCell>
        <mxCell id="c58yYooRlup-3saje_W5-47" value="" style="endArrow=classic;html=1;rounded=0;" edge="1" parent="1">
          <mxGeometry width="50" height="50" relative="1" as="geometry">
            <mxPoint x="560" y="600" as="sourcePoint" />
            <mxPoint x="560" y="528" as="targetPoint" />
          </mxGeometry>
        </mxCell>
        <mxCell id="c58yYooRlup-3saje_W5-51" value="event participation details" style="text;html=1;align=center;verticalAlign=middle;whiteSpace=wrap;rounded=0;" vertex="1" parent="1">
          <mxGeometry x="670" y="610" width="60" height="30" as="geometry" />
        </mxCell>
        <mxCell id="c58yYooRlup-3saje_W5-53" value="&lt;font style=&quot;font-size: 10px;&quot;&gt;&lt;span lang=&quot;EN&quot; style=&quot;line-height: 115%;&quot;&gt;Reporting parameters &lt;/span&gt;&lt;/font&gt;" style="text;whiteSpace=wrap;html=1;" vertex="1" parent="1">
          <mxGeometry x="415" y="190" width="110" height="30" as="geometry" />
        </mxCell>
        <mxCell id="c58yYooRlup-3saje_W5-56" value="&lt;font style=&quot;font-size: 10px;&quot;&gt;&lt;span lang=&quot;EN&quot; style=&quot;line-height: 115%;&quot;&gt;feedback summaries&lt;/span&gt;&lt;/font&gt;" style="text;whiteSpace=wrap;html=1;" vertex="1" parent="1">
          <mxGeometry x="550" y="180" width="70" height="50" as="geometry" />
        </mxCell>
        <mxCell id="c58yYooRlup-3saje_W5-59" value="" style="endArrow=classic;html=1;rounded=0;exitX=0.531;exitY=0.932;exitDx=0;exitDy=0;exitPerimeter=0;" edge="1" parent="1" source="c58yYooRlup-3saje_W5-11">
          <mxGeometry width="50" height="50" relative="1" as="geometry">
            <mxPoint x="560" y="200" as="sourcePoint" />
            <mxPoint x="521" y="240" as="targetPoint" />
          </mxGeometry>
        </mxCell>
        <mxCell id="c58yYooRlup-3saje_W5-61" value="" style="endArrow=classic;html=1;rounded=0;entryX=0.84;entryY=0.918;entryDx=0;entryDy=0;entryPerimeter=0;exitX=0.62;exitY=0.014;exitDx=0;exitDy=0;exitPerimeter=0;" edge="1" parent="1" source="c58yYooRlup-3saje_W5-1" target="c58yYooRlup-3saje_W5-11">
          <mxGeometry width="50" height="50" relative="1" as="geometry">
            <mxPoint x="540" y="240" as="sourcePoint" />
            <mxPoint x="540" y="170" as="targetPoint" />
          </mxGeometry>
        </mxCell>
        <mxCell id="c58yYooRlup-3saje_W5-64" value="" style="endArrow=none;html=1;rounded=0;exitX=1;exitY=0.75;exitDx=0;exitDy=0;" edge="1" parent="1" source="c58yYooRlup-3saje_W5-10">
          <mxGeometry width="50" height="50" relative="1" as="geometry">
            <mxPoint x="570" y="170" as="sourcePoint" />
            <mxPoint x="670" y="160" as="targetPoint" />
          </mxGeometry>
        </mxCell>
        <mxCell id="c58yYooRlup-3saje_W5-65" value="" style="endArrow=none;html=1;rounded=0;" edge="1" parent="1">
          <mxGeometry width="50" height="50" relative="1" as="geometry">
            <mxPoint x="670" y="280" as="sourcePoint" />
            <mxPoint x="670" y="160" as="targetPoint" />
          </mxGeometry>
        </mxCell>
        <mxCell id="c58yYooRlup-3saje_W5-66" value="" style="endArrow=classic;html=1;rounded=0;entryX=0.95;entryY=0.304;entryDx=0;entryDy=0;entryPerimeter=0;" edge="1" parent="1" target="c58yYooRlup-3saje_W5-1">
          <mxGeometry width="50" height="50" relative="1" as="geometry">
            <mxPoint x="670" y="280" as="sourcePoint" />
            <mxPoint x="720" y="230" as="targetPoint" />
          </mxGeometry>
        </mxCell>
        <mxCell id="c58yYooRlup-3saje_W5-67" value="&lt;font style=&quot;font-size: 10px;&quot;&gt;&lt;span lang=&quot;EN&quot; style=&quot;line-height: 115%;&quot;&gt;Event participation&lt;br&gt;statistics&lt;/span&gt;&lt;/font&gt;" style="text;whiteSpace=wrap;html=1;" vertex="1" parent="1">
          <mxGeometry x="675" y="175" width="150" height="60" as="geometry" />
        </mxCell>
      </root>
    </mxGraphModel>
  </diagram>
</mxfile>
